<svg version="1.2" xmlns="http://www.w3.org/2000/svg" viewBox="0 0 350 411" width="350" height="411">
	<title>Logotipo_de_la_Agencia_Estatal_de_Investigación</title>
	<style>
		.s0 { fill: #053a8b } 
		.s1 { fill: #000000 } 
	</style>
	<g id="switch44">
		<g id="svg_2">
			<g id="svg_3">
				<g id="svg_5">
					<g id="svg_6">
						<path id="svg_7" class="s0" d="m289.5 393.2c0 4.2-33.1-24.1-59.8-43.4 0 0 61.1-114.4 16.9-327.4 0 0 79.5 24.3 79 28.1-2.9 22.4-36 130.4-36.1 342.7z"/>
						<path id="svg_8" class="s0" d="m160.2 290c-155.1-101.8 29.6-245.9 29.6-245.9 0 0-301.9 171.4-41.4 261.7 20.8 7.2 74.7 14.2 135.3 17 0 0-87.7-9.2-123.5-32.8z"/>
						<path id="svg_9" class="s0" d="m166.9 41.5c0 0 72.3 6.1 61.8 54.4-17.6 81.2-200.3 111.6-208.9 112.1-9.2 0.6 167.3-46.3 182.7-122.4 7.3-35.8-35.6-44.1-35.6-44.1z"/>
					</g>
					<g id="svg_10">
						<g id="svg_11">
							<path id="svg_12" class="s1" d="m375.4 145.6l12.6-58.8h7.9l12.5 58.8h-7.8l-2.7-14.9h-11.9l-2.8 14.9zm11.6-20.7h9.8l-4.9-26.5z"/>
							<path id="svg_13" class="s1" d="m427.2 146.3q-8 0-11.5-5.1-3.6-5-3.6-14.9v-19.7q0-4 0.5-7.1 0.4-3 1.5-5.6 1.1-2.6 2.9-4.2 1.7-1.6 4.5-2.5 2.7-0.9 6.4-0.9 8.1 0 11.7 4.1 3.6 4.1 3.6 13v2.2h-7.7v-1.8q0-2.5-0.2-4.1-0.1-1.6-0.6-3.1c-0.2-0.9-0.7-1.7-1.2-2.2q-0.9-0.8-2.2-1.3-1.4-0.5-3.3-0.5-1.6 0-2.7 0.4-1.2 0.3-2 0.9-0.8 0.5-1.4 1.5-0.5 0.9-0.8 1.9-0.4 0.9-0.5 2.4-0.2 1.5-0.3 2.7 0 1.2 0 3v21.7q0 6.8 1.6 9.8 1.7 2.9 6.3 2.9c3 0 5.2-1.1 6.3-3.2 1.1-2.1 1.7-5.6 1.7-10.2v-4.2h-7.4v-5.8h14.8v29.2h-5.2l-0.8-6.8q-2.6 7.5-10.4 7.5z"/>
							<path id="svg_14" fill-rule="evenodd" class="s1" d="m459.4 112.3h11.8v5.8h-11.8v21.6h14.7v5.9h-22.9v-58.8h22.8v6.1h-14.6z"/>
							<path id="svg_15" fill-rule="evenodd" class="s1" d="m486.8 145.6h-6.9v-58.8h5.5l16.7 39v-39h6.9v58.8h-5.3l-16.9-40.2z"/>
							<path id="svg_16" class="s1" d="m532 146.2q-3.7 0-6.4-1-2.8-1-4.5-2.7-1.8-1.7-2.9-4.2-1.1-2.6-1.6-5.4-0.4-2.7-0.4-6.2v-20.8q0-3.7 0.5-6.6 0.4-2.9 1.5-5.4 1.1-2.6 2.9-4.2c1.2-1.1 2.7-1.9 4.5-2.5q2.7-1 6.4-1 7.9 0 11.4 4.3 3.4 4.3 3.4 12.6v4.7h-7.8v-4.1q0-1.4 0-2.1c0-0.6 0-1.2 0-1.9-0.1-0.8-0.2-1.4-0.2-1.8-0.2-0.4-0.3-0.9-0.4-1.5-0.2-0.6-0.4-1-0.6-1.3q-0.4-0.5-0.9-1c-0.3-0.4-0.8-0.7-1.2-0.9q-0.7-0.2-1.6-0.4-0.9-0.2-2-0.2-1.8 0-3 0.4-1.3 0.3-2.1 1.1-0.8 0.8-1.4 1.8-0.5 0.9-0.7 2.5-0.3 1.5-0.4 2.9 0 1.4 0 3.4v23.3q0 6.6 1.6 9.2 1.7 2.6 6 2.6 1.6 0 2.8-0.4 1.1-0.3 1.9-1.2 0.8-0.8 1.2-1.7 0.5-0.8 0.7-2.3 0.2-1.6 0.3-2.8 0-1.3 0-3.4v-4.3h7.8v4.4q0 3.3-0.4 6-0.5 2.7-1.5 5-1 2.3-2.7 3.8-1.7 1.5-4.2 2.4-2.6 0.9-6 0.9z"/>
							<path id="svg_17" fill-rule="evenodd" class="s1" d="m554.2 86.8h8v58.8h-8z"/>
							<path id="svg_18" class="s1" d="m567.6 145.6l12.6-58.8h7.9l12.5 58.8h-7.8l-2.7-14.9h-11.9l-2.8 14.9zm11.6-20.7h9.8l-4.9-26.5z"/>
						</g>
						<g id="svg_19">
							<path id="svg_20" class="s1" d="m462.3 237.2l12.5-58.7h7.9l12.5 58.7h-7.8l-2.7-14.8h-11.9l-2.8 14.8zm11.6-20.6h9.8l-4.9-26.6z"/>
							<g id="svg_21">
								<path id="svg_22" fill-rule="evenodd" class="s1" d="m398.3 231.3v5.9h-22.9v-58.7h22.8v6h-14.6v19.4h11.8v5.9h-11.8v21.5z"/>
								<path id="svg_23" class="s1" d="m417.9 237.9q-7.4 0-11.3-4.6-3.8-4.6-4.3-12.5l7.3-2c0.5 8.4 3.3 12.6 8.3 12.6q3.2 0 4.8-1.8 1.7-1.7 1.7-5.1 0-1.9-0.5-3.4-0.4-1.6-1.4-3-1.1-1.4-2-2.4-0.9-0.9-2.5-2.5l-9.9-8.7c-2-1.8-3.4-3.7-4.3-5.7q-1.4-3-1.4-7.3 0-6.4 3.7-10 3.7-3.5 10.2-3.6 7-0.1 10.5 3.6 3.5 3.8 4.2 11.6l-6.9 1.9c-0.1-1.3-0.2-2.4-0.4-3.4-0.1-1-0.4-2-0.8-3q-0.6-1.5-1.4-2.4-0.8-1-2.1-1.5-1.4-0.6-3.2-0.4-6.4 0.4-6.4 6.4-0.1 2.6 0.8 4.3 0.9 1.8 3 3.7l9.9 8.7q3.9 3.5 6.2 7.5 2.3 3.9 2.3 9 0 6.4-3.9 10.2-3.9 3.8-10.2 3.8z"/>
								<path id="svg_24" fill-rule="evenodd" class="s1" d="m451.8 184.5v52.7h-8.2v-52.7h-10.7v-6h29.2v6z"/>
								<path id="svg_25" fill-rule="evenodd" class="s1" d="m512.2 184.5v52.7h-8.2v-52.7h-10.7v-6h29.3v6z"/>
								<path id="svg_26" class="s1" d="m522.7 237.2l12.5-58.7h7.9l12.6 58.7h-7.8l-2.7-14.8h-12l-2.8 14.8zm11.6-20.6h9.9l-5-26.6z"/>
								<path id="svg_27" fill-rule="evenodd" class="s1" d="m584 231.3v5.9h-23.2v-58.7h8.2v52.8z"/>
								<path id="svg_28" class="s1" d="m604.4 237.2v-58.7h12.8q9.5 0 13.4 4.3 4 4.3 3.9 13.6v21.6q0 9.7-3.8 14.4-3.9 4.8-12.9 4.8zm8.2-5.9h4.6c1.2 0 2.4-0.1 3.3-0.3 1-0.3 1.8-0.6 2.4-0.9 0.6-0.4 1.2-0.9 1.6-1.7q0.7-1.1 1-2.1 0.3-0.9 0.5-2.8 0.2-1.9 0.2-3.2 0-1.4 0.1-3.9v-19q-0.1-2.2-0.1-3.6-0.1-1.5-0.3-2.9-0.2-1.5-0.6-2.4-0.5-0.9-1.1-1.8-0.7-0.8-1.7-1.2-1-0.5-2.3-0.7-1.4-0.3-3.2-0.3h-4.4c0 0 0 46.8 0 46.8z"/>
								<path id="svg_29" fill-rule="evenodd" class="s1" d="m664.7 231.3v5.9h-22.9v-58.7h22.7v6h-14.5v19.4h11.8v5.9h-11.8v21.5z"/>
							</g>
						</g>
						<g id="svg_30">
							<path id="svg_31" fill-rule="evenodd" class="s1" d="m375.4 270.3h8.1v58.7h-8.1z"/>
							<path id="svg_32" fill-rule="evenodd" class="s1" d="m399 329h-6.9v-58.7h5.6l16.7 39v-39h6.8v58.7h-5.2l-17-40.1z"/>
							<path id="svg_33" fill-rule="evenodd" class="s1" d="m446.9 329h-7.1l-13.2-58.7h7.7l9.3 43.3 8.8-43.3h7.5z"/>
							<path id="svg_34" fill-rule="evenodd" class="s1" d="m473.5 295.8h11.9v5.8h-11.9v21.6h14.8v5.8h-23v-58.7h22.8v6h-14.6z"/>
							<path id="svg_35" class="s1" d="m507.8 329.7q-7.3 0-11.2-4.6-3.9-4.6-4.4-12.5l7.3-2q0.8 12.6 8.3 12.6c2.2 0 3.7-0.6 4.8-1.7 1.1-1.2 1.7-2.9 1.7-5.2q0-1.9-0.5-3.4-0.4-1.6-1.4-3-1-1.4-1.9-2.4c-0.6-0.6-1.5-1.4-2.6-2.4l-9.8-8.8c-2-1.8-3.5-3.7-4.4-5.7-0.9-2-1.3-4.4-1.3-7.3q0-6.4 3.6-9.9 3.8-3.6 10.2-3.7 7-0.1 10.5 3.7 3.5 3.7 4.3 11.5l-6.9 2q-0.2-2-0.4-3.4-0.3-1.5-0.9-3-0.5-1.5-1.3-2.5-0.9-0.9-2.2-1.5-1.3-0.5-3.1-0.4-6.5 0.5-6.5 6.4 0 2.6 0.9 4.4 0.9 1.7 3 3.6l9.9 8.8q3.8 3.4 6.1 7.4 2.3 4 2.3 9c0 4.3-1.3 7.7-3.9 10.2q-3.9 3.8-10.2 3.8z"/>
							<path id="svg_36" fill-rule="evenodd" class="s1" d="m552 276.3h-10.3v52.7h-8.2v-52.7h-10.7v-6h29.2z"/>
							<path id="svg_37" fill-rule="evenodd" class="s1" d="m556.1 270.3h8v58.7h-8z"/>
							<path id="svg_38" class="s1" d="m586.8 329.8q-8 0-11.6-5.1-3.6-5.1-3.5-14.9v-19.7q0-4.1 0.4-7.1 0.4-3 1.5-5.6c0.8-1.8 1.7-3.1 2.9-4.2q1.8-1.7 4.5-2.6 2.7-0.9 6.4-0.9 8.1 0 11.7 4.2 3.6 4.1 3.6 13v2.2h-7.7v-1.9q0-2.5-0.1-4.1-0.2-1.6-0.6-3-0.5-1.5-1.3-2.3-0.9-0.8-2.2-1.2-1.3-0.5-3.3-0.5-1.5 0-2.7 0.3-1.2 0.4-2 0.9-0.8 0.6-1.4 1.5-0.5 1-0.8 1.9-0.3 1-0.5 2.5-0.2 1.4-0.2 2.6-0.1 1.2-0.1 3.1v21.7q0 6.7 1.7 9.7 1.6 2.9 6.2 2.9c3.1 0 5.2-1 6.3-3.2q1.7-3.2 1.7-10.2v-4.1h-7.4v-5.8h14.8v29.1h-5.1l-0.8-6.8q-2.7 7.6-10.4 7.6z"/>
							<path id="svg_39" class="s1" d="m607.5 329l12.5-58.7h7.9l12.5 58.7h-7.8l-2.7-14.8h-11.9l-2.8 14.8zm11.6-20.6h9.8l-4.9-26.5z"/>
							<path id="svg_40" class="s1" d="m660.2 329.7q-3.7 0-6.4-1-2.8-1-4.5-2.7-1.8-1.7-2.9-4.2-1.1-2.6-1.5-5.4-0.5-2.8-0.4-6.2v-20.8q0-3.7 0.4-6.6c0.3-2 0.8-3.8 1.5-5.5q1.1-2.5 2.9-4.1 1.8-1.6 4.5-2.5 2.8-1 6.4-1 7.9 0 11.4 4.3 3.4 4.3 3.4 12.6v4.7h-7.7v-4.1q0-1.4-0.1-2.2 0-0.7 0-1.8-0.1-1.2-0.2-1.8-0.2-0.6-0.4-1.5-0.2-0.9-0.6-1.3-0.3-0.5-0.9-1.1-0.5-0.5-1.2-0.8-0.6-0.2-1.6-0.4c-0.6-0.1-1.3-0.2-2-0.2q-1.7 0-3 0.4-1.3 0.3-2.1 1.1-0.8 0.8-1.3 1.8c-0.4 0.6-0.6 1.5-0.8 2.5q-0.2 1.5-0.3 2.9-0.1 1.4-0.1 3.4v23.3q0 6.6 1.7 9.2c1.1 1.7 3 2.6 5.9 2.6q1.6-0.1 2.8-0.4 1.2-0.4 1.9-1.2 0.8-0.8 1.3-1.7 0.4-0.9 0.6-2.4c0.2-1 0.2-1.9 0.3-2.7q0-1.3 0-3.4v-4.3h7.8v4.4q0 3.3-0.4 6-0.4 2.6-1.5 5-1 2.3-2.6 3.8-1.7 1.5-4.3 2.4-2.6 0.9-6 0.9z"/>
							<path id="svg_41" fill-rule="evenodd" class="s1" d="m682.4 270.3h8.1v58.7h-8.1z"/>
							<path id="svg_42" class="s1" d="m714.1 329.7q-4.4 0-7.6-1.3-3.1-1.3-4.9-3.9-1.9-2.5-2.7-5.9-0.9-3.4-0.9-8v-22.2q0-9.2 3.8-13.9 3.7-4.8 12.3-4.8 8.5 0 12.3 4.8 3.7 4.8 3.7 13.9v22.3q0 9.1-3.7 14-3.8 5-12.3 5zm-4-7.2q1.5 0.8 4 0.8 2.4 0 4-0.8 1.5-0.7 2.4-2.2c0.5-1.1 0.9-2.2 1.1-3.4q0.3-1.8 0.3-4.5v-25.7q0-2.7-0.3-4.5-0.3-1.7-1.1-3.2-0.9-1.5-2.4-2.2-1.6-0.7-4-0.7-2.4 0-4 0.7-1.6 0.7-2.4 2.2-0.8 1.5-1.1 3.2-0.4 1.8-0.3 4.5v25.7q-0.1 2.7 0.3 4.5c0.1 1.2 0.6 2.3 1.1 3.4q0.8 1.5 2.4 2.2zm2-57.1l4.3-14.4h7.7l-8.1 14.4z"/>
							<path id="svg_43" fill-rule="evenodd" class="s1" d="m744.3 329h-6.9v-58.7h5.5l16.7 39v-39h6.9v58.7h-5.3l-16.9-40.1z"/>
						</g>
					</g>
				</g>
			</g>
		</g>
	</g>
	<g id="g48">
	</g>
</svg>