<?xml version="1.0" encoding="iso-8859-1"?>
<!-- Uploaded to: SVG Repo, www.svgrepo.com, Generator: SVG Repo Mixer Tools -->
<svg height="800px" width="800px" version="1.1" id="Layer_1" xmlns="http://www.w3.org/2000/svg" xmlns:xlink="http://www.w3.org/1999/xlink" 
	 viewBox="0 0 511.985 511.985" xml:space="preserve">
<g>
	<path style="fill:#81AF46;" d="M383.99,110.671c0,0-63.999,121.95-63.999,200.004c0,78.045,63.999,181.965,63.999,181.965
		s63.999-100.639,63.999-181.965C447.989,229.355,383.99,110.671,383.99,110.671z"/>
	<path style="fill:#81AF46;" d="M170.667,195.997c0,0-63.999,73.029-63.999,139.708c0,66.671,63.999,127.091,63.999,127.091
		s63.998-72.764,63.998-127.091S170.667,195.997,170.667,195.997z"/>
</g>
<path style="fill:#8CC153;" d="M329.804,52.047c-16.906-29.218-51.155-40.749-79.67-26.812
	c-24.765,12.109-35.062,42.108-22.952,66.873c4.874,9.984,13.437,17.359,24.108,20.734c9.703,3.094,20.766,2.75,31.124-0.922
	c7.344-2.609,14.266-9.906,17.202-18.172c2.844-7.953,2.047-16.328-2.218-23.671c-0.031-0.062-0.047-0.109-0.078-0.156
	c-0.062-0.109-0.125-0.219-0.188-0.328h-0.016c-1.875-3.078-5.25-5.156-9.125-5.156c-5.875,0-10.656,4.781-10.656,10.671
	c0,2.016,0.562,3.906,1.547,5.516h-0.016c1.188,1.953,1.406,3.734,0.734,5.781c-1.016,3.016-3.484,5.078-4.328,5.422
	c-10.046,3.562-23.39,2.234-28.937-9.078c-6.938-14.203-1.031-31.406,13.156-38.343c9.125-4.469,19.03-5,28.64-1.547
	c9.53,3.422,17.765,10.469,23.202,19.875c8.094,13.968,14.5,36.108-22.968,66.998l13.562,16.469
	c17.984-14.828,29.531-30.202,34.297-45.687C341.21,84.327,339.054,68.031,329.804,52.047z"/>
<path style="fill:#A0D468;" d="M509.097,153.154l0.016-0.016c-1.141-1.203-28.344-29.812-73.123-44.312
	c-26.469-8.578-53.608-10.438-80.623-5.547c-33.422,6.078-66.577,22.531-98.561,48.937c-28.968,23.905-59.437,38.796-90.576,44.28
	c-24.812,4.375-50.218,2.828-75.529-4.578c-43.766-12.797-72.483-39.03-72.78-39.296l0,0c-1.906-1.766-4.453-2.844-7.25-2.844
	C4.78,149.778,0,154.544,0,160.434c0,3.093,1.327,5.859,3.421,7.812H3.404c1.297,1.203,32.125,29.515,80.437,43.89
	c18.202,5.422,36.468,8.125,54.607,8.125c10.359,0,20.672-0.875,30.906-2.656c35.03-6.047,69.014-22.515,101.029-48.937
	c28.951-23.906,58.639-38.812,88.232-44.296c23.437-4.344,46.967-2.828,69.982,4.484c39.827,12.64,64.717,38.64,64.951,38.874l0,0
	c1.953,2.078,4.719,3.375,7.781,3.375c5.891,0,10.656-4.781,10.656-10.671C511.987,157.623,510.893,155.06,509.097,153.154z"/>
<g>
	<path style="fill:#8CC153;" d="M415.989,236.637c0,17.672-14.312,31.999-31.999,31.999c-17.672,0-31.999-14.327-31.999-31.999
		c0-17.671,14.327-31.999,31.999-31.999C401.677,204.638,415.989,218.965,415.989,236.637z"/>
	<path style="fill:#8CC153;" d="M415.989,311.315c0,17.671-14.312,31.999-31.999,31.999c-17.672,0-31.999-14.328-31.999-31.999
		c0-17.672,14.327-32,31.999-32C401.677,279.315,415.989,293.643,415.989,311.315z"/>
	<path style="fill:#8CC153;" d="M202.666,292.143c0,17.672-14.328,31.999-31.999,31.999c-17.672,0-32-14.327-32-31.999
		s14.328-32.008,32-32.008C188.338,260.136,202.666,274.471,202.666,292.143z"/>
	<circle style="fill:#8CC153;" cx="170.663" cy="366.802" r="32"/>
	<path style="fill:#8CC153;" d="M415.989,385.985c0,17.672-14.312,31.999-31.999,31.999c-17.672,0-31.999-14.327-31.999-31.999
		c0-17.688,14.327-32,31.999-32C401.677,353.985,415.989,368.298,415.989,385.985z"/>
</g>
<g style="opacity:0.1;">
	<path style="fill:#FFFFFF;" d="M170.667,260.136c-1.812,0-3.594,0.156-5.328,0.438c15.125,2.547,26.655,15.711,26.655,31.57
		c0,15.844-11.53,28.999-26.655,31.546c1.734,0.281,3.516,0.453,5.328,0.453c17.671,0,31.999-14.327,31.999-31.999
		S188.338,260.136,170.667,260.136z"/>
</g>
<g style="opacity:0.1;">
	<path style="fill:#FFFFFF;" d="M170.667,334.799c-1.812,0-3.594,0.156-5.328,0.453c15.125,2.547,26.655,15.702,26.655,31.546
		c0,15.859-11.53,29.016-26.655,31.547c1.734,0.297,3.516,0.453,5.328,0.453c17.671,0,31.999-14.328,31.999-32
		S188.338,334.799,170.667,334.799z"/>
</g>
<g style="opacity:0.1;">
	<path style="fill:#FFFFFF;" d="M383.99,353.985c-1.812,0-3.594,0.156-5.328,0.438c15.14,2.547,26.671,15.703,26.671,31.562
		c0,15.844-11.531,28.999-26.671,31.546c1.734,0.281,3.516,0.453,5.328,0.453c17.687,0,31.999-14.327,31.999-31.999
		C415.989,368.298,401.677,353.985,383.99,353.985z"/>
</g>
<g style="opacity:0.1;">
	<path style="fill:#FFFFFF;" d="M383.99,279.315c-1.812,0-3.594,0.156-5.328,0.453c15.14,2.531,26.671,15.688,26.671,31.547
		c0,15.858-11.531,29.015-26.671,31.546c1.734,0.297,3.516,0.453,5.328,0.453c17.687,0,31.999-14.328,31.999-31.999
		C415.989,293.643,401.677,279.315,383.99,279.315z"/>
</g>
<g style="opacity:0.1;">
	<path style="fill:#FFFFFF;" d="M383.99,204.638c-1.812,0-3.594,0.172-5.328,0.453c15.14,2.547,26.671,15.702,26.671,31.546
		c0,15.859-11.531,29.015-26.671,31.562c1.734,0.281,3.516,0.438,5.328,0.438c17.687,0,31.999-14.327,31.999-31.999
		C415.989,218.965,401.677,204.638,383.99,204.638z"/>
</g>
</svg>